<svg id="svg" xmlns="http://www.w3.org/2000/svg" xmlns:xlink="http://www.w3.org/1999/xlink" width="400" height="400" viewBox="0, 0, 400,400"><g id="svgg"><path id="path0" d="M183.226 44.767 C 77.580 56.068,12.676 172.340,59.481 266.452 C 131.748 411.762,342.721 370.629,355.641 208.710 L 356.439 198.710 337.574 198.710 L 318.710 198.710 318.604 205.484 C 317.459 278.560,238.712 335.650,168.387 314.388 C 42.093 276.205,59.608 91.800,190.484 81.740 L 201.290 80.910 201.290 62.390 L 201.290 43.871 194.516 44.077 C 190.790 44.191,185.710 44.501,183.226 44.767 M279.250 96.852 C 270.792 107.539,263.000 117.333,261.935 118.615 C 260.871 119.897,258.548 122.843,256.774 125.161 C 255.000 127.480,252.677 130.383,251.613 131.613 C 250.548 132.843,248.226 135.746,246.452 138.065 C 244.677 140.383,242.355 143.286,241.290 144.516 C 240.226 145.746,237.903 148.650,236.129 150.968 C 234.355 153.286,232.032 156.189,230.968 157.419 C 229.903 158.650,227.581 161.553,225.806 163.871 C 224.032 166.189,221.710 169.092,220.645 170.323 C 219.581 171.553,217.258 174.456,215.484 176.774 C 213.710 179.092,211.387 181.996,210.323 183.226 C 209.258 184.456,206.935 187.374,205.161 189.710 C 198.584 198.370,197.631 198.280,186.453 187.933 C 185.033 186.619,181.839 184.006,179.356 182.127 C 176.873 180.247,173.679 177.634,172.259 176.320 C 170.839 175.006,167.645 172.393,165.161 170.514 C 162.677 168.634,159.199 165.790,157.433 164.194 C 153.099 160.278,153.392 160.134,145.612 170.000 C 141.834 174.790,138.037 179.450,137.173 180.355 C 136.310 181.259,133.450 184.628,130.818 187.840 C 125.260 194.624,124.040 192.568,142.581 207.657 C 149.677 213.432,158.048 220.314,161.183 222.950 C 164.317 225.585,168.091 228.593,169.570 229.632 C 171.048 230.672,173.419 232.618,174.839 233.957 C 176.258 235.296,179.452 237.930,181.935 239.809 C 184.419 241.688,187.223 243.955,188.165 244.847 C 200.502 256.520,213.315 249.728,236.129 219.425 C 237.903 217.068,240.226 214.133,241.290 212.903 C 242.355 211.673,244.677 208.770,246.452 206.452 C 248.226 204.133,250.548 201.230,251.613 200.000 C 252.677 198.770,255.000 195.867,256.774 193.548 C 258.548 191.230,260.871 188.327,261.935 187.097 C 263.000 185.867,265.323 182.963,267.097 180.645 C 268.871 178.327,271.194 175.424,272.258 174.194 C 273.323 172.963,275.645 170.060,277.419 167.742 C 279.194 165.424,281.516 162.520,282.581 161.290 C 283.645 160.060,285.968 157.158,287.742 154.841 C 289.516 152.524,292.511 148.818,294.397 146.605 C 302.648 136.924,327.736 105.081,327.739 104.286 C 327.743 103.152,325.318 100.789,320.032 96.774 C 317.696 95.000,314.779 92.677,313.548 91.613 C 312.318 90.548,309.415 88.226,307.097 86.452 C 304.778 84.677,301.362 81.920,299.505 80.324 C 294.923 76.386,296.402 75.179,279.250 96.852 " stroke="none" fill="#000000" fill-rule="evenodd"></path></g></svg>